<svg id="visual" viewBox="0 0 1280 1024" width="1280" height="1024" xmlns="http://www.w3.org/2000/svg" xmlns:xlink="http://www.w3.org/1999/xlink" version="1.1"><rect x="0" y="0" width="1280" height="1024" fill="#FFFFFF"></rect><defs><linearGradient id="grad1_0" x1="20%" y1="100%" x2="100%" y2="0%"><stop offset="25%" stop-color="#0376d1" stop-opacity="1"></stop><stop offset="75%" stop-color="#0376d1" stop-opacity="1"></stop></linearGradient></defs><defs><linearGradient id="grad1_1" x1="20%" y1="100%" x2="100%" y2="0%"><stop offset="25%" stop-color="#0376d1" stop-opacity="1"></stop><stop offset="75%" stop-color="#7ea1e1" stop-opacity="1"></stop></linearGradient></defs><defs><linearGradient id="grad1_2" x1="20%" y1="100%" x2="100%" y2="0%"><stop offset="25%" stop-color="#c1cff0" stop-opacity="1"></stop><stop offset="75%" stop-color="#7ea1e1" stop-opacity="1"></stop></linearGradient></defs><defs><linearGradient id="grad1_3" x1="20%" y1="100%" x2="100%" y2="0%"><stop offset="25%" stop-color="#c1cff0" stop-opacity="1"></stop><stop offset="75%" stop-color="#ffffff" stop-opacity="1"></stop></linearGradient></defs><defs><linearGradient id="grad2_0" x1="0%" y1="100%" x2="80%" y2="0%"><stop offset="25%" stop-color="#0376d1" stop-opacity="1"></stop><stop offset="75%" stop-color="#0376d1" stop-opacity="1"></stop></linearGradient></defs><defs><linearGradient id="grad2_1" x1="0%" y1="100%" x2="80%" y2="0%"><stop offset="25%" stop-color="#7ea1e1" stop-opacity="1"></stop><stop offset="75%" stop-color="#0376d1" stop-opacity="1"></stop></linearGradient></defs><defs><linearGradient id="grad2_2" x1="0%" y1="100%" x2="80%" y2="0%"><stop offset="25%" stop-color="#7ea1e1" stop-opacity="1"></stop><stop offset="75%" stop-color="#c1cff0" stop-opacity="1"></stop></linearGradient></defs><defs><linearGradient id="grad2_3" x1="0%" y1="100%" x2="80%" y2="0%"><stop offset="25%" stop-color="#ffffff" stop-opacity="1"></stop><stop offset="75%" stop-color="#c1cff0" stop-opacity="1"></stop></linearGradient></defs><g transform="translate(1280, 1024)"><path d="M-532.7 0C-507.7 -41.5 -482.7 -83.1 -466.5 -125C-450.4 -166.9 -443.1 -209.3 -420 -242.5C-396.9 -275.7 -358 -299.8 -326 -326C-294 -352.1 -268.9 -380.3 -240 -415.7C-211.1 -451.1 -178.5 -493.9 -137.9 -514.6C-97.3 -535.3 -48.6 -534 0 -532.7L0 0Z" fill="#e0e7f8"></path><path d="M-399.6 0C-380.8 -31.2 -362 -62.3 -349.9 -93.8C-337.8 -125.2 -332.3 -157 -315 -181.9C-297.7 -206.8 -268.5 -224.9 -244.5 -244.5C-220.5 -264.1 -201.6 -285.2 -180 -311.8C-158.4 -338.3 -133.9 -370.4 -103.4 -385.9C-72.9 -401.5 -36.5 -400.5 0 -399.6L0 0Z" fill="#a1b7e9"></path><path d="M-266.4 0C-253.9 -20.8 -241.3 -41.5 -233.3 -62.5C-225.2 -83.5 -221.6 -104.6 -210 -121.3C-198.5 -137.9 -179 -149.9 -163 -163C-147 -176.1 -134.4 -190.1 -120 -207.8C-105.6 -225.6 -89.3 -246.9 -68.9 -257.3C-48.6 -267.7 -24.3 -267 0 -266.4L0 0Z" fill="#558bd9"></path><path d="M-133.2 0C-126.9 -10.4 -120.7 -20.8 -116.6 -31.3C-112.6 -41.7 -110.8 -52.3 -105 -60.6C-99.2 -68.9 -89.5 -75 -81.5 -81.5C-73.5 -88 -67.2 -95.1 -60 -103.9C-52.8 -112.8 -44.6 -123.5 -34.5 -128.6C-24.3 -133.8 -12.2 -133.5 0 -133.2L0 0Z" fill="#0376d1"></path></g><g transform="translate(0, 0)"><path d="M532.7 0C511.4 41.6 490.1 83.2 478.1 128.1C466.2 173.1 463.7 221.4 438.2 253C412.7 284.6 364.2 299.3 335.2 335.2C306.1 371 296.6 427.9 266.4 461.4C236.2 494.8 185.3 504.9 137.4 512.9C89.6 520.9 44.8 526.8 0 532.7L0 0Z" fill="#e0e7f8"></path><path d="M399.6 0C383.5 31.2 367.5 62.4 358.6 96.1C349.7 129.8 347.8 166.1 328.7 189.7C309.5 213.4 273.1 224.5 251.4 251.4C229.6 278.2 222.4 320.9 199.8 346C177.1 371.1 139 378.7 103.1 384.7C67.2 390.7 33.6 395.1 0 399.6L0 0Z" fill="#a1b7e9"></path><path d="M266.4 0C255.7 20.8 245 41.6 239.1 64.1C233.1 86.5 231.9 110.7 219.1 126.5C206.4 142.3 182.1 149.7 167.6 167.6C153.1 185.5 148.3 213.9 133.2 230.7C118.1 247.4 92.6 252.5 68.7 256.5C44.8 260.5 22.4 263.4 0 266.4L0 0Z" fill="#558bd9"></path><path d="M133.2 0C127.8 10.4 122.5 20.8 119.5 32C116.6 43.3 115.9 55.4 109.6 63.2C103.2 71.1 91 74.8 83.8 83.8C76.5 92.7 74.1 107 66.6 115.3C59 123.7 46.3 126.2 34.4 128.2C22.4 130.2 11.2 131.7 0 133.2L0 0Z" fill="#0376d1"></path></g></svg>